<mxfile host="Electron" modified="2023-05-19T21:28:28.833Z" agent="Mozilla/5.0 (Windows NT 10.0; Win64; x64) AppleWebKit/537.36 (KHTML, like Gecko) draw.io/21.2.8 Chrome/112.0.5615.165 Electron/24.2.0 Safari/537.36" etag="nWDfJXvyrFqiypQ3UmHs" version="21.2.8" type="device">
  <diagram id="sBU_8sA8G2OYkGz-aqzt" name="PÃ¡gina-1">
    <mxGraphModel dx="1036" dy="613" grid="1" gridSize="10" guides="1" tooltips="1" connect="1" arrows="1" fold="1" page="1" pageScale="1" pageWidth="827" pageHeight="1169" math="0" shadow="0">
      <root>
        <mxCell id="0" />
        <mxCell id="1" parent="0" />
        <mxCell id="D1uXFJh2gL3Y-wr4RAAZ-2" style="edgeStyle=orthogonalEdgeStyle;rounded=0;orthogonalLoop=1;jettySize=auto;html=1;exitX=1;exitY=0.5;exitDx=0;exitDy=0;endArrow=blockThin;endFill=0;fillColor=#0050ef;strokeColor=#001DBC;" parent="1" source="IZYFSUdv0YLNzbsgcO3a-1" target="D1uXFJh2gL3Y-wr4RAAZ-1" edge="1">
          <mxGeometry relative="1" as="geometry" />
        </mxCell>
        <mxCell id="IZYFSUdv0YLNzbsgcO3a-1" value="" style="image;html=1;image=img/lib/clip_art/computers/Laptop_128x128.png" parent="1" vertex="1">
          <mxGeometry x="100" y="220" width="50" height="50" as="geometry" />
        </mxCell>
        <mxCell id="IZYFSUdv0YLNzbsgcO3a-2" value="" style="image;html=1;image=img/lib/clip_art/people/Suit_Man_128x128.png" parent="1" vertex="1">
          <mxGeometry x="40" y="220" width="50" height="50" as="geometry" />
        </mxCell>
        <mxCell id="D1uXFJh2gL3Y-wr4RAAZ-5" style="edgeStyle=orthogonalEdgeStyle;rounded=0;orthogonalLoop=1;jettySize=auto;html=1;entryX=0;entryY=0.5;entryDx=0;entryDy=0;entryPerimeter=0;endArrow=blockThin;endFill=0;fillColor=#0050ef;strokeColor=#001DBC;" parent="1" source="D1uXFJh2gL3Y-wr4RAAZ-1" target="D1uXFJh2gL3Y-wr4RAAZ-4" edge="1">
          <mxGeometry relative="1" as="geometry">
            <Array as="points">
              <mxPoint x="391" y="250" />
              <mxPoint x="391" y="138" />
            </Array>
          </mxGeometry>
        </mxCell>
        <mxCell id="D1uXFJh2gL3Y-wr4RAAZ-21" style="edgeStyle=orthogonalEdgeStyle;rounded=0;orthogonalLoop=1;jettySize=auto;html=1;fillColor=#0050ef;strokeColor=#001DBC;endArrow=blockThin;endFill=0;entryX=0;entryY=0.5;entryDx=0;entryDy=0;" parent="1" source="D1uXFJh2gL3Y-wr4RAAZ-1" target="D1uXFJh2gL3Y-wr4RAAZ-23" edge="1">
          <mxGeometry relative="1" as="geometry">
            <mxPoint x="540" y="281" as="targetPoint" />
            <Array as="points">
              <mxPoint x="540" y="250" />
              <mxPoint x="540" y="256" />
            </Array>
          </mxGeometry>
        </mxCell>
        <mxCell id="D1uXFJh2gL3Y-wr4RAAZ-1" value="" style="verticalLabelPosition=bottom;sketch=0;aspect=fixed;html=1;verticalAlign=top;strokeColor=none;align=center;outlineConnect=0;shape=mxgraph.citrix.web_server;" parent="1" vertex="1">
          <mxGeometry x="280" y="215" width="51" height="60" as="geometry" />
        </mxCell>
        <mxCell id="D1uXFJh2gL3Y-wr4RAAZ-27" style="edgeStyle=orthogonalEdgeStyle;rounded=0;orthogonalLoop=1;jettySize=auto;html=1;exitX=1;exitY=0.51;exitDx=0;exitDy=0;exitPerimeter=0;fillColor=#0050ef;strokeColor=#001DBC;endArrow=none;endFill=0;" parent="1" source="D1uXFJh2gL3Y-wr4RAAZ-4" edge="1">
          <mxGeometry relative="1" as="geometry">
            <mxPoint x="770" y="138" as="targetPoint" />
          </mxGeometry>
        </mxCell>
        <mxCell id="D1uXFJh2gL3Y-wr4RAAZ-4" value="" style="sketch=0;aspect=fixed;pointerEvents=1;shadow=0;dashed=0;html=1;strokeColor=none;labelPosition=center;verticalLabelPosition=bottom;verticalAlign=top;align=center;fillColor=#00188D;shape=mxgraph.azure.queue_generic" parent="1" vertex="1">
          <mxGeometry x="590" y="120" width="120" height="36" as="geometry" />
        </mxCell>
        <mxCell id="D1uXFJh2gL3Y-wr4RAAZ-8" value="&lt;font style=&quot;font-size: 8px;&quot;&gt;CURL&lt;/font&gt;" style="text;html=1;strokeColor=none;fillColor=none;align=center;verticalAlign=middle;whiteSpace=wrap;rounded=0;" parent="1" vertex="1">
          <mxGeometry x="160" y="210" width="60" height="30" as="geometry" />
        </mxCell>
        <mxCell id="D1uXFJh2gL3Y-wr4RAAZ-9" value="" style="image;aspect=fixed;html=1;points=[];align=center;fontSize=12;image=img/lib/azure2/general/Image.svg;" parent="1" vertex="1">
          <mxGeometry x="210" y="210" width="34.91" height="24" as="geometry" />
        </mxCell>
        <mxCell id="UMEBE64PWIlc5mwHxOC8-3" style="edgeStyle=orthogonalEdgeStyle;rounded=0;orthogonalLoop=1;jettySize=auto;html=1;exitX=0.5;exitY=1;exitDx=0;exitDy=0;entryX=0.433;entryY=0.061;entryDx=0;entryDy=0;entryPerimeter=0;fillColor=#0050ef;strokeColor=#001DBC;endArrow=blockThin;endFill=0;" edge="1" parent="1" source="D1uXFJh2gL3Y-wr4RAAZ-12" target="UMEBE64PWIlc5mwHxOC8-1">
          <mxGeometry relative="1" as="geometry" />
        </mxCell>
        <mxCell id="D1uXFJh2gL3Y-wr4RAAZ-12" value="&lt;font style=&quot;font-size: 10px;&quot;&gt;Proceso de division de imagen&lt;/font&gt;" style="rounded=0;whiteSpace=wrap;html=1;" parent="1" vertex="1">
          <mxGeometry x="240.5" y="280" width="130" height="40" as="geometry" />
        </mxCell>
        <mxCell id="D1uXFJh2gL3Y-wr4RAAZ-15" style="edgeStyle=orthogonalEdgeStyle;rounded=0;orthogonalLoop=1;jettySize=auto;html=1;entryX=0.5;entryY=1;entryDx=0;entryDy=0;fillColor=#d80073;strokeColor=#A50040;endArrow=blockThin;endFill=0;" parent="1" source="D1uXFJh2gL3Y-wr4RAAZ-13" target="IZYFSUdv0YLNzbsgcO3a-2" edge="1">
          <mxGeometry relative="1" as="geometry" />
        </mxCell>
        <mxCell id="D1uXFJh2gL3Y-wr4RAAZ-59" style="edgeStyle=orthogonalEdgeStyle;rounded=0;orthogonalLoop=1;jettySize=auto;html=1;entryX=0.524;entryY=-0.019;entryDx=0;entryDy=0;entryPerimeter=0;fillColor=#d80073;strokeColor=#A50040;endArrow=blockThin;endFill=0;" parent="1" source="D1uXFJh2gL3Y-wr4RAAZ-13" target="D1uXFJh2gL3Y-wr4RAAZ-58" edge="1">
          <mxGeometry relative="1" as="geometry" />
        </mxCell>
        <mxCell id="UMEBE64PWIlc5mwHxOC8-6" style="edgeStyle=orthogonalEdgeStyle;rounded=0;orthogonalLoop=1;jettySize=auto;html=1;entryX=1;entryY=0.51;entryDx=0;entryDy=0;entryPerimeter=0;fillColor=#0050ef;strokeColor=#001DBC;endArrow=blockThin;endFill=0;" edge="1" parent="1" source="D1uXFJh2gL3Y-wr4RAAZ-13" target="UMEBE64PWIlc5mwHxOC8-1">
          <mxGeometry relative="1" as="geometry" />
        </mxCell>
        <mxCell id="UMEBE64PWIlc5mwHxOC8-9" style="edgeStyle=orthogonalEdgeStyle;rounded=0;orthogonalLoop=1;jettySize=auto;html=1;entryX=0.029;entryY=0.047;entryDx=0;entryDy=0;entryPerimeter=0;fillColor=#0050ef;strokeColor=#001DBC;endArrow=blockThin;endFill=0;" edge="1" parent="1" source="D1uXFJh2gL3Y-wr4RAAZ-13" target="D1uXFJh2gL3Y-wr4RAAZ-58">
          <mxGeometry relative="1" as="geometry" />
        </mxCell>
        <mxCell id="D1uXFJh2gL3Y-wr4RAAZ-13" value="" style="verticalLabelPosition=bottom;sketch=0;aspect=fixed;html=1;verticalAlign=top;strokeColor=none;align=center;outlineConnect=0;shape=mxgraph.citrix.web_server;" parent="1" vertex="1">
          <mxGeometry x="388.5" y="450" width="51" height="60" as="geometry" />
        </mxCell>
        <mxCell id="D1uXFJh2gL3Y-wr4RAAZ-61" style="edgeStyle=orthogonalEdgeStyle;rounded=0;orthogonalLoop=1;jettySize=auto;html=1;fillColor=#d80073;strokeColor=#A50040;endArrow=blockThin;endFill=0;" parent="1" source="D1uXFJh2gL3Y-wr4RAAZ-63" edge="1">
          <mxGeometry relative="1" as="geometry">
            <mxPoint x="1055" y="500" as="targetPoint" />
          </mxGeometry>
        </mxCell>
        <mxCell id="D1uXFJh2gL3Y-wr4RAAZ-14" value="&lt;font style=&quot;font-size: 10px;&quot;&gt;Proceso de unificacion de imagen&lt;/font&gt;" style="rounded=0;whiteSpace=wrap;html=1;" parent="1" vertex="1">
          <mxGeometry x="349" y="515" width="130" height="40" as="geometry" />
        </mxCell>
        <mxCell id="D1uXFJh2gL3Y-wr4RAAZ-16" value="&lt;font style=&quot;font-size: 8px;&quot;&gt;Sube las diferentes partes de la imagen a un bucket&lt;/font&gt;" style="text;html=1;strokeColor=none;fillColor=none;align=center;verticalAlign=middle;whiteSpace=wrap;rounded=0;" parent="1" vertex="1">
          <mxGeometry x="414" y="290" width="130" height="30" as="geometry" />
        </mxCell>
        <mxCell id="D1uXFJh2gL3Y-wr4RAAZ-17" value="&lt;font style=&quot;font-size: 8px;&quot;&gt;Genera un mensaje con la tarea (filtrar parte de imagen)&lt;/font&gt;" style="text;html=1;strokeColor=none;fillColor=none;align=center;verticalAlign=middle;whiteSpace=wrap;rounded=0;" parent="1" vertex="1">
          <mxGeometry x="390" y="100" width="120" height="30" as="geometry" />
        </mxCell>
        <mxCell id="D1uXFJh2gL3Y-wr4RAAZ-22" value="" style="verticalLabelPosition=bottom;html=1;verticalAlign=top;strokeWidth=1;align=center;outlineConnect=0;dashed=0;outlineConnect=0;shape=mxgraph.aws3d.s3Bucket;fillColor=#4286c5;strokeColor=#57A2D8;aspect=fixed;" parent="1" vertex="1">
          <mxGeometry x="580" y="234" width="100.06" height="103.8" as="geometry" />
        </mxCell>
        <mxCell id="D1uXFJh2gL3Y-wr4RAAZ-23" value="&lt;font style=&quot;font-size: 10px;&quot;&gt;pre-filtrado&lt;/font&gt;" style="image;html=1;image=img/lib/clip_art/general/Empty_Folder_128x128.png" parent="1" vertex="1">
          <mxGeometry x="580" y="240" width="60" height="32" as="geometry" />
        </mxCell>
        <mxCell id="D1uXFJh2gL3Y-wr4RAAZ-26" value="Worker" style="shape=parallelogram;perimeter=parallelogramPerimeter;whiteSpace=wrap;html=1;fixedSize=1;fillColor=#cce5ff;strokeColor=#36393d;" parent="1" vertex="1">
          <mxGeometry x="880" y="96" width="110" height="34" as="geometry" />
        </mxCell>
        <mxCell id="D1uXFJh2gL3Y-wr4RAAZ-28" value="Worker" style="shape=parallelogram;perimeter=parallelogramPerimeter;whiteSpace=wrap;html=1;fixedSize=1;fillColor=#cce5ff;strokeColor=#36393d;" parent="1" vertex="1">
          <mxGeometry x="880" y="150" width="110" height="34" as="geometry" />
        </mxCell>
        <mxCell id="D1uXFJh2gL3Y-wr4RAAZ-48" style="edgeStyle=orthogonalEdgeStyle;rounded=0;orthogonalLoop=1;jettySize=auto;html=1;exitX=0.5;exitY=1;exitDx=0;exitDy=0;fillColor=#0050ef;strokeColor=#001DBC;endArrow=blockThin;endFill=0;" parent="1" source="D1uXFJh2gL3Y-wr4RAAZ-29" target="D1uXFJh2gL3Y-wr4RAAZ-22" edge="1">
          <mxGeometry relative="1" as="geometry" />
        </mxCell>
        <mxCell id="D1uXFJh2gL3Y-wr4RAAZ-50" style="edgeStyle=orthogonalEdgeStyle;rounded=0;orthogonalLoop=1;jettySize=auto;html=1;exitX=1;exitY=0.25;exitDx=0;exitDy=0;fillColor=#d80073;strokeColor=#A50040;endArrow=blockThin;endFill=0;" parent="1" source="D1uXFJh2gL3Y-wr4RAAZ-29" edge="1">
          <mxGeometry relative="1" as="geometry">
            <mxPoint x="1060" y="370" as="targetPoint" />
          </mxGeometry>
        </mxCell>
        <mxCell id="D1uXFJh2gL3Y-wr4RAAZ-53" style="edgeStyle=orthogonalEdgeStyle;rounded=0;orthogonalLoop=1;jettySize=auto;html=1;exitX=1;exitY=0.5;exitDx=0;exitDy=0;entryX=1;entryY=0.51;entryDx=0;entryDy=0;entryPerimeter=0;fillColor=#d80073;strokeColor=#A50040;endArrow=blockThin;endFill=0;" parent="1" source="D1uXFJh2gL3Y-wr4RAAZ-29" target="D1uXFJh2gL3Y-wr4RAAZ-52" edge="1">
          <mxGeometry relative="1" as="geometry" />
        </mxCell>
        <mxCell id="D1uXFJh2gL3Y-wr4RAAZ-29" value="Worker" style="shape=parallelogram;perimeter=parallelogramPerimeter;whiteSpace=wrap;html=1;fixedSize=1;fillColor=#cce5ff;strokeColor=#36393d;" parent="1" vertex="1">
          <mxGeometry x="870" y="228" width="110" height="34" as="geometry" />
        </mxCell>
        <mxCell id="D1uXFJh2gL3Y-wr4RAAZ-30" value="Worker" style="shape=parallelogram;perimeter=parallelogramPerimeter;whiteSpace=wrap;html=1;fixedSize=1;fillColor=#cce5ff;strokeColor=#36393d;" parent="1" vertex="1">
          <mxGeometry x="880" y="40" width="110" height="34" as="geometry" />
        </mxCell>
        <mxCell id="D1uXFJh2gL3Y-wr4RAAZ-32" style="edgeStyle=orthogonalEdgeStyle;rounded=0;orthogonalLoop=1;jettySize=auto;html=1;fillColor=#0050ef;strokeColor=#001DBC;endArrow=none;endFill=0;" parent="1" edge="1">
          <mxGeometry relative="1" as="geometry">
            <mxPoint x="770" y="240" as="targetPoint" />
            <mxPoint x="770" y="60" as="sourcePoint" />
          </mxGeometry>
        </mxCell>
        <mxCell id="D1uXFJh2gL3Y-wr4RAAZ-33" style="edgeStyle=orthogonalEdgeStyle;rounded=0;orthogonalLoop=1;jettySize=auto;html=1;exitX=1;exitY=0.5;exitDx=0;exitDy=0;endArrow=blockThin;endFill=0;fillColor=#0050ef;strokeColor=#001DBC;" parent="1" edge="1">
          <mxGeometry relative="1" as="geometry">
            <mxPoint x="770" y="240" as="sourcePoint" />
            <mxPoint x="880" y="240" as="targetPoint" />
          </mxGeometry>
        </mxCell>
        <mxCell id="D1uXFJh2gL3Y-wr4RAAZ-34" style="edgeStyle=orthogonalEdgeStyle;rounded=0;orthogonalLoop=1;jettySize=auto;html=1;exitX=1;exitY=0.5;exitDx=0;exitDy=0;endArrow=blockThin;endFill=0;fillColor=#0050ef;strokeColor=#001DBC;" parent="1" edge="1">
          <mxGeometry relative="1" as="geometry">
            <mxPoint x="770" y="166.5" as="sourcePoint" />
            <mxPoint x="880" y="166.5" as="targetPoint" />
          </mxGeometry>
        </mxCell>
        <mxCell id="D1uXFJh2gL3Y-wr4RAAZ-35" style="edgeStyle=orthogonalEdgeStyle;rounded=0;orthogonalLoop=1;jettySize=auto;html=1;exitX=1;exitY=0.5;exitDx=0;exitDy=0;endArrow=blockThin;endFill=0;fillColor=#0050ef;strokeColor=#001DBC;" parent="1" edge="1">
          <mxGeometry relative="1" as="geometry">
            <mxPoint x="770" y="114.5" as="sourcePoint" />
            <mxPoint x="880" y="114.5" as="targetPoint" />
          </mxGeometry>
        </mxCell>
        <mxCell id="D1uXFJh2gL3Y-wr4RAAZ-36" style="edgeStyle=orthogonalEdgeStyle;rounded=0;orthogonalLoop=1;jettySize=auto;html=1;exitX=1;exitY=0.5;exitDx=0;exitDy=0;endArrow=blockThin;endFill=0;fillColor=#0050ef;strokeColor=#001DBC;" parent="1" edge="1">
          <mxGeometry relative="1" as="geometry">
            <mxPoint x="770" y="60" as="sourcePoint" />
            <mxPoint x="880" y="60" as="targetPoint" />
          </mxGeometry>
        </mxCell>
        <mxCell id="D1uXFJh2gL3Y-wr4RAAZ-46" value="" style="verticalLabelPosition=bottom;html=1;verticalAlign=top;strokeWidth=1;align=center;outlineConnect=0;dashed=0;outlineConnect=0;shape=mxgraph.aws3d.s3Bucket;fillColor=#4286c5;strokeColor=#57A2D8;aspect=fixed;" parent="1" vertex="1">
          <mxGeometry x="1010" y="370.4" width="100.06" height="103.8" as="geometry" />
        </mxCell>
        <mxCell id="D1uXFJh2gL3Y-wr4RAAZ-47" value="&lt;font style=&quot;font-size: 10px;&quot;&gt;post-filtrado&lt;/font&gt;" style="image;html=1;image=img/lib/clip_art/general/Empty_Folder_128x128.png" parent="1" vertex="1">
          <mxGeometry x="1010" y="442.2" width="60" height="32" as="geometry" />
        </mxCell>
        <mxCell id="D1uXFJh2gL3Y-wr4RAAZ-49" value="&lt;font style=&quot;font-size: 8px;&quot;&gt;Obtienen la parte de imagen asociada a su tarea&lt;/font&gt;" style="text;html=1;strokeColor=none;fillColor=none;align=center;verticalAlign=middle;whiteSpace=wrap;rounded=0;" parent="1" vertex="1">
          <mxGeometry x="710" y="290" width="120" height="30" as="geometry" />
        </mxCell>
        <mxCell id="D1uXFJh2gL3Y-wr4RAAZ-51" value="&lt;font style=&quot;font-size: 8px;&quot;&gt;Una vez filtrada la imagen, la suben al bucket&lt;/font&gt;" style="text;html=1;strokeColor=none;fillColor=none;align=center;verticalAlign=middle;whiteSpace=wrap;rounded=0;" parent="1" vertex="1">
          <mxGeometry x="1060" y="300" width="120" height="30" as="geometry" />
        </mxCell>
        <mxCell id="D1uXFJh2gL3Y-wr4RAAZ-55" style="edgeStyle=orthogonalEdgeStyle;rounded=0;orthogonalLoop=1;jettySize=auto;html=1;exitX=0;exitY=0.5;exitDx=0;exitDy=0;exitPerimeter=0;startArrow=blockThin;startFill=0;endArrow=none;endFill=0;fillColor=#d80073;strokeColor=#A50040;" parent="1" source="D1uXFJh2gL3Y-wr4RAAZ-52" target="D1uXFJh2gL3Y-wr4RAAZ-13" edge="1">
          <mxGeometry relative="1" as="geometry">
            <Array as="points">
              <mxPoint x="610" y="438" />
              <mxPoint x="610" y="460" />
            </Array>
          </mxGeometry>
        </mxCell>
        <mxCell id="D1uXFJh2gL3Y-wr4RAAZ-52" value="" style="sketch=0;aspect=fixed;pointerEvents=1;shadow=0;dashed=0;html=1;strokeColor=none;labelPosition=center;verticalLabelPosition=bottom;verticalAlign=top;align=center;fillColor=#00188D;shape=mxgraph.azure.queue_generic" parent="1" vertex="1">
          <mxGeometry x="780" y="420" width="120" height="36" as="geometry" />
        </mxCell>
        <mxCell id="D1uXFJh2gL3Y-wr4RAAZ-54" value="&lt;font style=&quot;font-size: 8px;&quot;&gt;Generan un ACK confirmando el procesamiento de la tarea&lt;/font&gt;" style="text;html=1;strokeColor=none;fillColor=none;align=center;verticalAlign=middle;whiteSpace=wrap;rounded=0;" parent="1" vertex="1">
          <mxGeometry x="827" y="390" width="120" height="30" as="geometry" />
        </mxCell>
        <mxCell id="D1uXFJh2gL3Y-wr4RAAZ-56" value="&lt;font style=&quot;font-size: 8px;&quot;&gt;Procesa los mensajes de confirmacion&lt;/font&gt;" style="text;html=1;strokeColor=none;fillColor=none;align=center;verticalAlign=middle;whiteSpace=wrap;rounded=0;" parent="1" vertex="1">
          <mxGeometry x="478.99999999999994" y="465" width="120" height="30" as="geometry" />
        </mxCell>
        <mxCell id="D1uXFJh2gL3Y-wr4RAAZ-58" value="" style="image;aspect=fixed;html=1;points=[];align=center;fontSize=12;image=img/lib/azure2/databases/Azure_Database_PostgreSQL_Server.svg;" parent="1" vertex="1">
          <mxGeometry x="300.99999999999994" y="660" width="48" height="64" as="geometry" />
        </mxCell>
        <mxCell id="D1uXFJh2gL3Y-wr4RAAZ-60" value="&lt;span style=&quot;font-size: 8px;&quot;&gt;Una vez unifica la imagen, notifica al cliente e indica como descargar la imagen filtrada&lt;/span&gt;" style="text;html=1;strokeColor=none;fillColor=none;align=center;verticalAlign=middle;whiteSpace=wrap;rounded=0;" parent="1" vertex="1">
          <mxGeometry x="140" y="442.2" width="130" height="30" as="geometry" />
        </mxCell>
        <mxCell id="D1uXFJh2gL3Y-wr4RAAZ-63" value="&lt;span style=&quot;font-size: 8px;&quot;&gt;Luego de procesar un mensaje de confirmacion, actualiza en la BDD el registro de la tarea&lt;/span&gt;" style="text;html=1;strokeColor=none;fillColor=none;align=center;verticalAlign=middle;whiteSpace=wrap;rounded=0;" parent="1" vertex="1">
          <mxGeometry x="331" y="610" width="130" height="30" as="geometry" />
        </mxCell>
        <mxCell id="D1uXFJh2gL3Y-wr4RAAZ-64" value="&lt;span style=&quot;font-size: 8px;&quot;&gt;Si la tarea esta completa, descarga las partes de imagen filtradas del bucket para unificarla&lt;/span&gt;" style="text;html=1;strokeColor=none;fillColor=none;align=center;verticalAlign=middle;whiteSpace=wrap;rounded=0;" parent="1" vertex="1">
          <mxGeometry x="580" y="590" width="130" height="30" as="geometry" />
        </mxCell>
        <mxCell id="UMEBE64PWIlc5mwHxOC8-1" value="" style="sketch=0;aspect=fixed;pointerEvents=1;shadow=0;dashed=0;html=1;strokeColor=none;labelPosition=center;verticalLabelPosition=bottom;verticalAlign=top;align=center;fillColor=#00188D;shape=mxgraph.azure.queue_generic" vertex="1" parent="1">
          <mxGeometry x="292.45" y="380" width="120" height="36" as="geometry" />
        </mxCell>
        <mxCell id="UMEBE64PWIlc5mwHxOC8-4" value="&lt;font style=&quot;font-size: 8px;&quot;&gt;Genera un mensaje con la tarea (unificar imagen)&lt;/font&gt;" style="text;html=1;strokeColor=none;fillColor=none;align=center;verticalAlign=middle;whiteSpace=wrap;rounded=0;" vertex="1" parent="1">
          <mxGeometry x="181" y="330" width="120" height="30" as="geometry" />
        </mxCell>
        <mxCell id="UMEBE64PWIlc5mwHxOC8-7" value="&lt;span style=&quot;font-size: 8px;&quot;&gt;Procesa mensajes de tarea de unificacion de imagen&lt;/span&gt;" style="text;html=1;strokeColor=none;fillColor=none;align=center;verticalAlign=middle;whiteSpace=wrap;rounded=0;" vertex="1" parent="1">
          <mxGeometry x="423.99999999999994" y="370.4" width="120" height="30" as="geometry" />
        </mxCell>
        <mxCell id="UMEBE64PWIlc5mwHxOC8-8" value="&lt;span style=&quot;font-size: 8px;&quot;&gt;Luego de procesar un mensaje de unificacion, crea el registro asociado a la tarea para poder llevar registro del progreso&lt;/span&gt;" style="text;html=1;strokeColor=none;fillColor=none;align=center;verticalAlign=middle;whiteSpace=wrap;rounded=0;" vertex="1" parent="1">
          <mxGeometry x="172.44999999999993" y="610" width="120" height="30" as="geometry" />
        </mxCell>
      </root>
    </mxGraphModel>
  </diagram>
</mxfile>
